<?xml version="1.0" encoding="UTF-8" standalone="no"?>
<svg
   xmlns:dc="http://purl.org/dc/elements/1.1/"
   xmlns:cc="http://creativecommons.org/ns#"
   xmlns:rdf="http://www.w3.org/1999/02/22-rdf-syntax-ns#"
   xmlns:svg="http://www.w3.org/2000/svg"
   xmlns="http://www.w3.org/2000/svg"
   xmlns:xlink="http://www.w3.org/1999/xlink"
   xmlns:sodipodi="http://sodipodi.sourceforge.net/DTD/sodipodi-0.dtd"
   xmlns:inkscape="http://www.inkscape.org/namespaces/inkscape"
   height="600"
   width="600"
   version="1.1"
   id="svg2"
   inkscape:version="0.48.5 r10040"
   sodipodi:docname="polar-defender-icon.svg"
   inkscape:export-filename="/home/ash/Pictures/polar-defender-icon.png"
   inkscape:export-xdpi="19.200001"
   inkscape:export-ydpi="19.200001">
  <metadata
     id="metadata62">
    <rdf:RDF>
      <cc:Work
         rdf:about="">
        <dc:format>image/svg+xml</dc:format>
        <dc:type
           rdf:resource="http://purl.org/dc/dcmitype/StillImage" />
        <dc:title></dc:title>
      </cc:Work>
    </rdf:RDF>
  </metadata>
  <sodipodi:namedview
     pagecolor="#ffffff"
     bordercolor="#666666"
     borderopacity="1"
     objecttolerance="10"
     gridtolerance="10"
     guidetolerance="10"
     inkscape:pageopacity="0"
     inkscape:pageshadow="2"
     inkscape:window-width="1920"
     inkscape:window-height="1014"
     id="namedview60"
     showgrid="false"
     fit-margin-top="0"
     fit-margin-left="0"
     fit-margin-right="0"
     fit-margin-bottom="0"
     inkscape:zoom="0.35355339"
     inkscape:cx="1155.8333"
     inkscape:cy="289.47544"
     inkscape:window-x="0"
     inkscape:window-y="27"
     inkscape:window-maximized="1"
     inkscape:current-layer="svg2" />
  <defs
     id="defs4">
    <radialGradient
       id="g"
       gradientUnits="userSpaceOnUse"
       cy="299.79999"
       cx="-345.47"
       r="233.85001">
      <stop
         stop-color="#0FF"
         offset="0"
         id="stop7" />
      <stop
         stop-color="#00e9ff"
         stop-opacity="0.75"
         offset="0.80381"
         id="stop9" />
      <stop
         stop-color="#008bff"
         stop-opacity="0.40217391"
         offset="0.88708"
         id="stop11" />
      <stop
         stop-color="#0037ff"
         stop-opacity="0"
         offset="1"
         id="stop13" />
    </radialGradient>
    <filter
       id="f"
       color-interpolation-filters="sRGB">
      <feGaussianBlur
         stdDeviation="9.3540125"
         id="feGaussianBlur16" />
    </filter>
    <radialGradient
       id="a"
       xlink:href="#b"
       gradientUnits="userSpaceOnUse"
       cy="228.8"
       cx="-406.47"
       gradientTransform="matrix(1.5304031,0,0,1.5304031,215.5941,-121.35544)"
       r="233.85001" />
    <linearGradient
       id="b">
      <stop
         stop-color="#fedd52"
         offset="0"
         id="stop20" />
      <stop
         stop-color="#a78347"
         offset="1"
         id="stop22" />
    </linearGradient>
    <radialGradient
       id="c"
       gradientUnits="userSpaceOnUse"
       cy="996.91998"
       cx="-235.63"
       gradientTransform="matrix(1.5112096,0,0,0.866249,120.45827,192.90269)"
       r="371.07001">
      <stop
         stop-color="#007f00"
         offset="0"
         id="stop25" />
      <stop
         stop-color="#004100"
         offset="1"
         id="stop27" />
    </radialGradient>
    <radialGradient
       id="d"
       gradientUnits="userSpaceOnUse"
       cy="299.79999"
       cx="-345.47"
       r="233.85001">
      <stop
         stop-color="#FFF"
         stop-opacity="0"
         offset="0"
         id="stop30" />
      <stop
         stop-color="#FFF"
         stop-opacity="0.14351852"
         offset="0.63953"
         id="stop32" />
      <stop
         stop-color="#FFF"
         stop-opacity="0.47826087"
         offset="1"
         id="stop34" />
    </radialGradient>
    <clipPath
       id="e"
       clipPathUnits="userSpaceOnUse">
      <path
         d="m -111.62,299.8 a 233.85,233.85 0 1 1 -467.7,0 233.85,233.85 0 1 1 467.7,0 z"
         transform="translate(234.42314,838.88688)"
         id="path37"
         inkscape:connector-curvature="0"
         style="fill:url(#a)" />
    </clipPath>
    <radialGradient
       id="h"
       gradientUnits="userSpaceOnUse"
       cy="228.8"
       cx="-406.47"
       gradientTransform="matrix(1.5304031,0,0,1.5304031,450.01724,717.53144)"
       r="233.85001">
      <stop
         stop-color="#4bbbff"
         offset="0"
         id="stop40" />
      <stop
         stop-color="#0068a9"
         offset="1"
         id="stop42" />
    </radialGradient>
    <radialGradient
       inkscape:collect="always"
       xlink:href="#g"
       id="radialGradient3039"
       gradientUnits="userSpaceOnUse"
       cx="-345.47"
       cy="299.79999"
       r="233.85001" />
    <radialGradient
       inkscape:collect="always"
       xlink:href="#b"
       id="radialGradient3041"
       gradientUnits="userSpaceOnUse"
       gradientTransform="matrix(1.5304031,0,0,1.5304031,215.5941,-121.35544)"
       cx="-406.47"
       cy="228.8"
       r="233.85001" />
    <radialGradient
       inkscape:collect="always"
       xlink:href="#c"
       id="radialGradient3043"
       gradientUnits="userSpaceOnUse"
       gradientTransform="matrix(1.5112096,0,0,0.866249,120.45827,192.90269)"
       cx="-235.63"
       cy="996.91998"
       r="371.07001" />
    <radialGradient
       inkscape:collect="always"
       xlink:href="#d"
       id="radialGradient3045"
       gradientUnits="userSpaceOnUse"
       cx="-345.47"
       cy="299.79999"
       r="233.85001" />
    <radialGradient
       inkscape:collect="always"
       xlink:href="#h"
       id="radialGradient3047"
       gradientUnits="userSpaceOnUse"
       gradientTransform="matrix(1.5304031,0,0,1.5304031,450.01724,717.53144)"
       cx="-406.47"
       cy="228.8"
       r="233.85001" />
    <radialGradient
       inkscape:collect="always"
       xlink:href="#h"
       id="radialGradient3050"
       gradientUnits="userSpaceOnUse"
       gradientTransform="matrix(1.5304031,0,0,1.5304031,876.20914,-213.22036)"
       cx="-406.47"
       cy="228.8"
       r="233.85001" />
    <radialGradient
       inkscape:collect="always"
       xlink:href="#d"
       id="radialGradient3053"
       gradientUnits="userSpaceOnUse"
       cx="-345.47"
       cy="299.79999"
       r="233.85001"
       gradientTransform="translate(660.61504,-91.86492)" />
    <radialGradient
       inkscape:collect="always"
       xlink:href="#b"
       id="radialGradient3083"
       gradientUnits="userSpaceOnUse"
       gradientTransform="matrix(1.5304031,0,0,1.5304031,215.5941,-121.35544)"
       cx="-406.47"
       cy="228.8"
       r="233.85001" />
    <radialGradient
       inkscape:collect="always"
       xlink:href="#c"
       id="radialGradient3085"
       gradientUnits="userSpaceOnUse"
       gradientTransform="matrix(1.5112096,0,0,0.866249,120.45827,192.90269)"
       cx="-235.63"
       cy="996.91998"
       r="371.07001" />
    <radialGradient
       inkscape:collect="always"
       xlink:href="#d"
       id="radialGradient3087"
       gradientUnits="userSpaceOnUse"
       gradientTransform="translate(660.61504,-91.86492)"
       cx="-345.47"
       cy="299.79999"
       r="233.85001" />
    <radialGradient
       inkscape:collect="always"
       xlink:href="#h"
       id="radialGradient3089"
       gradientUnits="userSpaceOnUse"
       gradientTransform="matrix(1.5304031,0,0,1.5304031,876.20914,-213.22036)"
       cx="-406.47"
       cy="228.8"
       r="233.85001" />
  </defs>
  <g
     transform="translate(2141.69,-1008.0833)"
     id="g44">
    <g
       id="g3076"
       transform="translate(-2156.835,1100.1532)"
       inkscape:export-xdpi="3.0799999"
       inkscape:export-ydpi="3.0799999">
      <g
         transform="translate(426.1919,-930.7518)"
         clip-path="url(#e)"
         id="g50">
        <path
           d="m -111.62,299.8 a 233.85,233.85 0 1 1 -467.7,0 233.85,233.85 0 1 1 467.7,0 z"
           transform="translate(234.42314,838.88688)"
           id="path52"
           style="fill:url(#radialGradient3083)"
           inkscape:connector-curvature="0" />
        <path
           d="m -397.42,1183.8 c 0,0 99.052,83.265 282.06,83.265 183.008,0 288.77,-65.308 288.77,-65.308 m -463.69,-213.02 c 0,0 41.089,33.979 175.97,33.979 134.881,0 185.46,-33.979 185.46,-33.979"
           stroke-miterlimit="4"
           id="path54"
           style="fill:none;stroke:url(#radialGradient3085);stroke-width:120;stroke-linecap:butt;stroke-linejoin:miter;stroke-miterlimit:4;stroke-dasharray:none"
           inkscape:connector-curvature="0" />
      </g>
      <path
         d="m 548.99504,207.93508 a 233.85,233.85 0 1 1 -467.7,0 233.85,233.85 0 1 1 467.7,0 z"
         id="path56"
         style="fill:url(#radialGradient3087)"
         inkscape:connector-curvature="0" />
      <path
         d="m 315.1519,-25.9218 c -39.815,0 -77.309,9.9503 -110.12,27.5 3.6124,0.92481 7.5381,2.9338 11.656,6.375 14.206,-2.4484 73.24,-19.941 63.812,13.312 -16.092,1.79 -52.131,-14.565 -67.156,11.531 -11.924,45.887 28.975,-4.6113 51.75,4.8438 37.933,15.976 -0.91649,42.359 -22.438,50.344 -24.309,25.544 -51.519,56.925 -90.25,56.844 -49.358,14.54 25.052,40.118 16.656,60.188 -31.086,-4.4298 -57.795,-26.478 -71.938,-53.969 -2.5854,-3.4753 -4.5152,-6.9915 -5.9375,-10.531 -6.418,21.35 -9.875,43.966 -9.875,67.406 0,129.15 104.69,233.84 233.84,233.84 73.597,0 139.23,-34.008 182.09,-87.156 -18.141,-1.585 -34.511,-18.154 -30.594,-44.5 -4.7155,-30.463 -6.0185,-73.801 -40.688,-84.75 -35.476,-0.04 -68.384,-30.216 -44.094,-64.562 7.3049,-15.803 18.129,-29.831 30.875,-41.625 l 1.5625,-2.0938 c 1.9238,-0.079 3.8455,-0.114 5.7812,-0.125 47.081,-0.2678 97.208,19.485 126.41,56.625 -4.0766,-27.684 -13.019,-53.802 -25.906,-77.438 -17.505,5.1429 -35.541,7.0868 -53.344,1.7188 -18.277,-15.164 -54.05,27.961 -52.75,-4.2188 11.281,-29.156 43.73,-35.064 68.375,-48.656 -1.2007,-1.2357 -2.4287,-2.4472 -3.6562,-3.6562 -13.064,-1.9812 -34.541,-5.4649 -20.812,-18.25 -19.279,-14.962 -40.967,-26.957 -64.375,-35.344 0.32259,3.2676 -0.25108,7.0563 -1.9375,11.438 -13.289,23.808 -79.021,48.743 -73.125,3.4062 v -2.5938 c -5.2441,-3.0838 -8.6487,-10.884 -3.5938,-15.75 4.2425,-3.7275 11.111,-6.9542 19.031,-9.3438 -6.3482,-0.51723 -12.769,-0.8125 -19.25,-0.8125 z m -130.16,39.531 c -1.4105,0.94658 -2.799,1.93 -4.1875,2.9062 1.3349,0.21913 2.6564,0.29653 3.75,0.25 0.0472,-1.0673 0.19921,-2.1258 0.4375,-3.1562 z m 27.938,186.78 c 6.4336,-0.1168 12.889,1.2713 18.812,3.7813 27.896,17.673 58.29,37.634 73.594,67.906 13.643,41.391 -30.937,69.154 -49.594,100.44 -20.82,12.135 8.7077,50.866 -16.188,48.094 -30.955,-30.882 -8.4921,-81.196 -32.75,-115.47 -22.568,-27.352 -38.659,-78.713 -2.3438,-102.03 l 2.0625,-2.0938 c 2.1216,-0.3877 4.2617,-0.5861 6.4062,-0.625 z"
         id="path58"
         style="fill:url(#radialGradient3089)"
         inkscape:connector-curvature="0" />
    </g>
  </g>
</svg>
